HIERARCHY
ROOT Hips
{
	OFFSET	0	0	0
	CHANNELS 6  Xposition Yposition Zposition Xrotation Yrotation Zrotation
	JOINT Spine
	{
		OFFSET	0	6.86795	1.37906
		CHANNELS 3  Xrotation Yrotation Zrotation
		JOINT Spine1
		{
			OFFSET	0	11.7606	-2.1001
			CHANNELS 3  Xrotation Yrotation Zrotation
			JOINT Spine2
			{
				OFFSET	0	8.91491	0.955545
				CHANNELS 3  Xrotation Yrotation Zrotation
				JOINT Spine3
				{
					OFFSET	0	10.6685	3.17115
					CHANNELS 3  Xrotation Yrotation Zrotation
					JOINT Spine4
					{
						OFFSET	0	15.7927	-1.61708
						CHANNELS 3  Xrotation Yrotation Zrotation
						JOINT Neck
						{
							OFFSET	0	7.53935	-5.28175
							CHANNELS 3  Xrotation Yrotation Zrotation
							JOINT Head
							{
								OFFSET	0	9.05142	-2.70913
								CHANNELS 3  Xrotation Yrotation Zrotation
								End Site
								{
									OFFSET	0	18.8799	-0.913543
								}
							}
						}
					}
					JOINT LeftShoulder
					{
						OFFSET	-4.53621	19.1949	-9.05142
						CHANNELS 3  Xrotation Yrotation Zrotation
						JOINT LeftArm
						{
							OFFSET	-9.8955	-2.70912	3.47568
							CHANNELS 3  Xrotation Yrotation Zrotation
							JOINT LeftForeArm
							{
								OFFSET	-33.3495	-1.52213	2.38045
								CHANNELS 3  Xrotation Yrotation Zrotation
								JOINT LeftHand
								{
									OFFSET	-27.054	-1.86958	1.93108
									CHANNELS 3  Xrotation Yrotation Zrotation
									End Site
									{
										OFFSET	-9.87335	-0.682306	0.704704
									}
								}
							}
						}
					}
					JOINT RightShoulder
					{
						OFFSET	4.53621	19.1949	-9.05142
						CHANNELS 3  Xrotation Yrotation Zrotation
						JOINT RightArm
						{
							OFFSET	9.8955	-2.70912	3.47568
							CHANNELS 3  Xrotation Yrotation Zrotation
							JOINT RightForeArm
							{
								OFFSET	33.3495	-1.52213	2.38045
								CHANNELS 3  Xrotation Yrotation Zrotation
								JOINT RightHand
								{
									OFFSET	27.054	-1.86958	1.93108
									CHANNELS 3  Xrotation Yrotation Zrotation
									End Site
									{
										OFFSET	9.87335	-0.682306	0.704704
									}
								}
							}
						}
					}
				}
			}
		}
	}
	JOINT LeftUpLeg
	{
		OFFSET	-9.35843	-3.43397	-0.689532
		CHANNELS 3  Xrotation Yrotation Zrotation
		JOINT LeftLeg
		{
			OFFSET	-2.06148	-40.3938	-0.631444
			CHANNELS 3  Xrotation Yrotation Zrotation
			JOINT LeftFoot
			{
				OFFSET	-2.01493	-37.1416	3.19418
				CHANNELS 3  Xrotation Yrotation Zrotation
				JOINT LeftToeBase
				{
					OFFSET	0	-4.59973	-12.2169
					CHANNELS 3  Xrotation Yrotation Zrotation
					End Site
					{
						OFFSET	0	-1.83989	-7.35956
					}
				}
			}
		}
	}
	JOINT RightUpLeg
	{
		OFFSET	9.35843	-3.43397	-0.689532
		CHANNELS 3  Xrotation Yrotation Zrotation
		JOINT RightLeg
		{
			OFFSET	2.06148	-40.3938	-0.631444
			CHANNELS 3  Xrotation Yrotation Zrotation
			JOINT RightFoot
			{
				OFFSET	2.01493	-37.1416	3.19418
				CHANNELS 3  Xrotation Yrotation Zrotation
				JOINT RightToeBase
				{
					OFFSET	0	-4.59973	-12.2169
					CHANNELS 3  Xrotation Yrotation Zrotation
					End Site
					{
						OFFSET	0	-1.83989	-7.35956
					}
				}
			}
		}
	}
}
MOTION
Frames: 15
Frame Time: 0.020408
 0 -8.54439 2.99032 -0 0 -0 -0 0 -0 -0 0 -0 -0 0 -0 -0 0 -0 -0 0 -0 -0 0 -0 -0 0 -0 -0 0 -0 -0 0 -0 -0 0 -0 -0 0 -0 -0 0 -0 -0 0 -0 -0 0 -0 -0 0 -0 -0 0 -0 -0 0 -0 -0 0 -0 -0 0 -0 -0 0 -0 -0 0 -0 -0 0 -0 -0 0 -0
 82.4581 88.0513 -271.585 176.475 -49.9222 -178.198 180 -179.995 177.983 1.9152 -0.010551 -3.36109 2.61582 -0.0316529 -3.36109 3.38259 -0.0052813 -2.01666 175.726 179.95 179.33 166.206 -169.912 179.178 175.556 -161.363 177.612 1.37857 -11.49 2.88082 166.742 -118.667 -108.572 12.5759 -12.9315 1.08405 -0 -16.9488 10.6611 0.337583 -22.8085 -0.469156 145.113 131.511 134.205 35.9406 17.8144 -10.4372 -0 19.0181 -22.4103 18.2021 64.9033 -14.0423 157.293 -167.596 179.744 40.0051 0.0289406 -11.4736 1.98721 0 0 163.798 -135.79 170.121 7.22003 -6.56637 0.0734177 1.51986 0.00822926 -11.1019 159.777 180 -180
 82.2408 88.2964 -271.488 176.544 -48.5543 -177.999 180 -179.997 177.964 1.83187 -0.00548293 -3.39353 2.55366 -0.0164488 -3.39353 3.38869 -0.00274455 -2.03612 175.554 179.947 179.323 165.755 -170.428 178.666 175.458 -162.601 177.607 1.36799 -11.1824 2.85428 166.076 -118.927 -108.995 12.5813 -13.1296 1.08867 -0 -17.2722 9.99815 0.267013 -22.7861 -0.371251 145.571 131.659 133.817 36.3359 18.4328 -11.0648 -0 19.2248 -21.697 19.2795 64.6108 -13.8912 157.003 -167.942 179.382 40.087 -0.00537377 -11.4799 1.99725 0 0 164.267 -135.595 170.003 7.29567 -6.73939 0.131661 0.589315 0.0702017 -10.975 159.778 180 -180
 82.098 88.3718 -271.517 176.85 -47.4303 -177.794 180 -179.988 177.994 1.82041 -0.0231724 -3.34376 2.54177 -0.0695173 -3.34376 3.38632 -0.0115989 -2.00625 175.539 179.948 179.333 165.687 -171.202 178.635 175.483 -164.088 177.779 1.37659 -11.0123 2.86975 165.426 -119.118 -109.336 12.6201 -13.1579 1.10138 -0 -17.6979 9.16081 0.2499 -22.4701 -0.349752 145.784 131.448 133.748 36.5351 18.5989 -11.3701 -0 18.9738 -21.1052 19.452 63.8765 -13.3243 155.911 -168.473 179.308 40.0665 0.00419409 -11.4744 2.00805 0 0 164.742 -135.52 170.032 7.44128 -6.97524 0.059537 0.334603 0.0559674 -10.8483 159.779 180 -180
 82.0102 88.2067 -271.564 177.03 -46.5302 -177.965 179.999 -179.983 178.018 1.81215 -0.0339756 -3.30343 2.52003 -0.101927 -3.30343 3.34422 -0.0170059 -1.98205 175.622 179.95 179.341 165.904 -172.033 178.763 175.591 -165.618 178.008 1.35656 -10.8438 2.82549 164.753 -119.409 -109.884 12.6655 -13.4186 1.19855 -0 -18.1358 8.30452 0.218847 -22.1403 -0.308377 145.971 131.21 133.719 36.5987 18.4719 -11.278 -0 18.5207 -20.5557 21.2123 62.6161 -14.0958 154.705 -168.891 179.376 39.6775 0.0247369 -11.4813 2.01925 0 0 165.472 -135.487 170.55 7.50687 -7.24193 0.187554 1.1565 0.0540841 -10.6631 159.78 180 -180
 82.0787 88.1322 -271.581 177.155 -45.6395 -178.201 179.999 -179.98 178.047 1.82673 -0.0405324 -3.25578 2.52304 -0.121597 -3.25579 3.32143 -0.0202871 -1.95347 175.704 179.951 179.351 166.093 -173.067 179.21 175.69 -167.328 178.337 1.33795 -10.4214 2.78051 164.059 -119.689 -110.292 12.744 -13.8898 1.37329 -0 -18.6086 7.51002 0.141621 -21.9269 -0.200427 146.108 130.797 133.431 36.7086 18.4437 -11.2353 -0 17.9846 -20.0377 22.0194 61.1257 -13.5078 153.118 -169.136 179.484 39.0324 -0.00327149 -11.4671 2.03086 0 0 166.082 -135.468 171.113 7.41823 -7.45372 0.0491671 1.73363 0.0601093 -10.5131 159.781 180 -180
 82.2005 88.0621 -271.391 177.354 -44.8432 -178.494 180 -179.985 178.111 1.87616 -0.0298714 -3.1477 2.55416 -0.0896141 -3.14771 3.29523 -0.0149501 -1.88862 175.857 179.955 179.372 166.461 -174.18 179.926 175.836 -169.019 178.737 0.996756 -9.50768 2.06066 163.382 -120.151 -111.032 12.9817 -15.5215 1.77411 -0 -19.3851 6.6488 0.114115 -21.6032 -0.162559 145.941 130.318 133.087 36.5889 17.959 -10.8689 -0 17.0824 -19.6433 22.2186 58.8803 -12.8023 151.109 -169.458 179.341 38.9041 0.0594576 -11.4808 2.04218 0 0 166.867 -135.356 171.915 7.28327 -7.77484 -0.0672836 2.33398 0.0746102 -10.2 159.782 180 -180
 82.2441 88.2053 -271.72 177.416 -43.2885 -179.06 180 -179.992 178.18 1.81484 -0.0154051 -3.03333 2.53238 -0.0462154 -3.03333 3.36772 -0.00770949 -1.82 175.571 179.953 179.395 165.676 -175.237 -179.492 175.627 -170.631 179.054 0.745786 -8.70611 1.53452 163.294 -120.428 -111.287 13.31 -17.7732 2.3634 -0 -20.6736 5.78713 0.101422 -21.2927 -0.145376 145.993 130.077 133.192 36.5313 17.4348 -10.3971 -0 16.4655 -18.8957 21.8697 56.079 -10.758 149.209 -169.536 179.35 38.2133 0.0320448 -11.4807 2.0539 0 0 168.397 -135.246 172.95 6.96766 -8.21408 -0.110721 2.26404 0.00256542 -9.90484 159.783 180 -180
 82.2378 88.2414 -271.783 177.571 -42.8662 -179.379 179.999 -179.976 178.221 1.74886 -0.0481624 -2.96473 2.48263 -0.144487 -2.96474 3.38311 -0.0241019 -1.77884 175.413 179.953 179.409 165.263 -176.193 -178.795 175.524 -172.026 179.391 0.576389 -8.51647 1.18456 162.786 -120.549 -111.755 13.3588 -19.2264 2.75399 -0 -21.3061 5.36771 0.0456986 -20.7713 -0.0661793 145.936 129.682 133.378 36.4631 16.8976 -10.1437 -0 16.1073 -18.2514 22.8414 53.0108 -10.3953 147.04 -169.77 179.573 39.4799 0.11872 -11.5 2.06942 0 0 169.394 -135.193 173.946 6.74048 -8.48549 0.0313164 2.30969 0.0284337 -9.6679 159.784 180 -180
 82.2457 88.3345 -271.948 177.728 -41.5401 -179.362 179.999 -179.981 178.184 1.69431 -0.0385392 -3.02603 2.44769 -0.115617 -3.02604 3.40264 -0.0192868 -1.81562 175.264 179.95 179.397 164.872 -177.009 -178.127 175.423 -173.195 179.695 0.465631 -8.44938 0.956524 162.271 -120.589 -112.053 13.2679 -20.0542 2.82466 -0 -21.5345 5.06892 0.08438 -20.2382 -0.123462 146.055 129.052 133.336 36.4178 16.5688 -9.90593 -0 15.8231 -17.7422 22.6336 50.2476 -9.18371 144.828 -170.018 179.659 39.8042 0.121095 -11.5025 2.08533 0 0 170.691 -135.09 174.928 6.24223 -8.90442 0.116727 3.34423 -0.0173832 -9.44493 159.789 180 -180
 82.4663 88.3871 -272.072 178.165 -40.0195 -179.46 180 -179.989 178.208 1.65309 -0.0222158 -2.98714 2.43678 -0.0666473 -2.98714 3.46051 -0.0111176 -1.79228 175.05 179.948 179.405 164.285 -177.819 -177.677 175.262 -174.511 179.957 0.435573 -7.77572 0.891096 161.593 -120.903 -112.368 13.2375 -20.53 2.89861 -0 -21.6302 4.52195 179.94 -160.259 -179.912 146.437 128.3 133.128 36.5063 16.2752 -9.80138 -0 15.6748 -17.2413 22.4314 47.094 -6.88965 141.825 -170.162 179.456 39.5655 0.0271231 -11.4781 2.10118 0 0 172.275 -135.039 176.356 5.62285 -9.40219 0.140004 3.51444 -0.0122885 -9.21465 159.793 180 -180
 82.912 88.4471 -272.425 178.454 -39.2675 -179.871 179.999 -179.98 178.263 1.66375 -0.0409089 -2.89507 2.4494 -0.122727 -2.89508 3.47927 -0.0204712 -1.73704 175.027 179.95 179.423 164.198 -178.591 -177.335 175.249 -175.801 -179.802 0.531135 -7.20672 1.08272 161.525 -121.255 -112.469 13.2223 -20.8473 3.04728 -0 -21.3484 3.82227 179.711 -160.551 -179.571 146.692 127.889 133.1 36.6003 15.7388 -9.39843 -0 15.6007 -16.5895 22.9876 44.7239 -5.81454 139.049 -170.552 179.947 39.1952 0.125599 -11.4988 2.11701 0 0 173.599 -135.009 177.596 4.74049 -9.75189 0.120986 3.25037 -0.0144064 -9.05958 159.796 180 -180
 83.3571 88.6476 -272.758 178.558 -38.7012 179.447 179.999 -179.98 178.353 1.66501 -0.039165 -2.74446 2.45817 -0.117495 -2.74447 3.50145 -0.0195969 -1.64668 174.977 179.952 179.453 164.049 -179.231 -177.264 175.212 -176.999 -179.642 0.724546 -6.55861 1.47084 161.831 -121.471 -112.122 13.2025 -21.0623 3.0667 -0 -20.6833 3.1616 179.538 -160.926 -179.308 146.99 127.212 132.684 36.6372 14.9763 -8.94597 -0 15.5074 -16.0604 24.6336 42.0629 -5.54533 136.837 -170.961 179.815 39.9803 0.158858 -11.498 2.13905 0 0 175.402 -135.05 179.501 3.70218 -9.98935 0.133999 2.80674 -5.90487e-06 -8.83651 159.799 180 -180
 83.7541 89.2404 -272.958 179.224 -38.8991 179.021 180 -179.987 178.47 1.6927 -0.0255568 -2.54946 2.48571 -0.0766704 -2.54947 3.51474 -0.0127865 -1.52968 174.998 179.956 179.492 164.075 -179.934 -177.088 175.226 -178.244 -179.448 0.790981 -6.2542 1.60248 161.765 -121.832 -112.406 13.1879 -20.895 3.04606 -0 -20.0011 2.433 179.365 -161.147 -179.047 147.142 126.626 132.113 36.5867 14.0394 -8.13094 -0 15.2966 -15.3734 26.2737 39.7579 -5.01424 135.099 -171.712 179.819 40.3019 0.162389 -11.5273 2.15994 0 0 177.029 -135.151 -178.743 2.84947 -10.0848 -0.0651857 1.14696 -0.0278013 -8.63781 159.799 180 -180
 84.2713 89.087 -273.169 179.598 -39.0109 178.785 180 -179.996 178.543 1.7433 -0.00746388 -2.42752 2.51122 -0.0223917 -2.42752 3.46798 -0.00373409 -1.45651 175.201 179.959 179.516 164.603 179.443 -176.808 175.389 -179.225 -179.255 0.977387 -6.41747 1.98248 161.678 -121.992 -112.905 13.2166 -20.6881 3.08591 -0 -19.1188 1.72969 179.053 -161.248 -178.574 147.196 126.086 131.775 36.5397 13.1038 -7.4236 -0 15.0336 -14.7224 27.5138 37.2995 -4.88318 134.383 -172.322 179.714 39.5244 0.111393 -11.475 2.17809 0 0 178.424 -135.249 -177.418 2.5286 -10.0758 -0.0434869 1.94333 -0.0649067 -8.52401 159.804 180 -180
